<?xml version="1.0" standalone="no"?><svg xmlns="http://www.w3.org/2000/svg" viewBox="0 0 1440 320"><path fill="#5000ca" fill-opacity="1" d="M0,128L24,106.7C48,85,96,43,144,32C192,21,240,43,288,74.7C336,107,384,149,432,154.7C480,160,528,128,576,138.7C624,149,672,203,720,224C768,245,816,235,864,208C912,181,960,139,1008,144C1056,149,1104,203,1152,229.3C1200,256,1248,256,1296,234.7C1344,213,1392,171,1416,149.3L1440,128L1440,320L1416,320C1392,320,1344,320,1296,320C1248,320,1200,320,1152,320C1104,320,1056,320,1008,320C960,320,912,320,864,320C816,320,768,320,720,320C672,320,624,320,576,320C528,320,480,320,432,320C384,320,336,320,288,320C240,320,192,320,144,320C96,320,48,320,24,320L0,320Z"></path></svg>